<?xml version="1.0" encoding="UTF-8" standalone="no"?>
<!-- Created with Inkscape (http://www.inkscape.org/) -->

<svg
   version="1.1"
   id="svg2"
   width="1500.9169"
   height="3009.4236"
   viewBox="0 0 1500.9169 3009.4236"
   sodipodi:docname="mobilbackground.svg"
   inkscape:version="1.1.1 (3bf5ae0d25, 2021-09-20)"
   xmlns:inkscape="http://www.inkscape.org/namespaces/inkscape"
   xmlns:sodipodi="http://sodipodi.sourceforge.net/DTD/sodipodi-0.dtd"
   xmlns="http://www.w3.org/2000/svg"
   xmlns:svg="http://www.w3.org/2000/svg">
  <defs
     id="defs6">
    <filter
       style="color-interpolation-filters:sRGB"
       inkscape:label="Drop Shadow"
       id="filter41269"
       x="-0.047374703"
       y="-0.034414463"
       width="1.0578717"
       height="1.0439946">
      <feFlood
         flood-opacity="0.690196"
         flood-color="rgb(0,0,0)"
         result="flood"
         id="feFlood41259" />
      <feComposite
         in="flood"
         in2="SourceGraphic"
         operator="in"
         result="composite1"
         id="feComposite41261" />
      <feGaussianBlur
         in="composite1"
         stdDeviation="3.16085"
         result="blur"
         id="feGaussianBlur41263" />
      <feOffset
         dx="-26.6531"
         dy="-19.6667"
         result="offset"
         id="feOffset41265" />
      <feComposite
         in="SourceGraphic"
         in2="offset"
         operator="over"
         result="fbSourceGraphic"
         id="feComposite41267" />
      <feColorMatrix
         result="fbSourceGraphicAlpha"
         in="fbSourceGraphic"
         values="0 0 0 -1 0 0 0 0 -1 0 0 0 0 -1 0 0 0 0 1 0"
         id="feColorMatrix41310" />
      <feFlood
         id="feFlood41312"
         flood-opacity="0.690196"
         flood-color="rgb(0,0,0)"
         result="flood"
         in="fbSourceGraphic" />
      <feComposite
         in2="fbSourceGraphic"
         id="feComposite41314"
         in="flood"
         operator="in"
         result="composite1" />
      <feGaussianBlur
         id="feGaussianBlur41316"
         in="composite1"
         stdDeviation="3.16085"
         result="blur" />
      <feOffset
         id="feOffset41318"
         dx="-26.6531"
         dy="-19.6667"
         result="offset" />
      <feComposite
         in2="offset"
         id="feComposite41320"
         in="fbSourceGraphic"
         operator="over"
         result="composite2" />
    </filter>
    <filter
       style="color-interpolation-filters:sRGB"
       inkscape:label="Drop Shadow"
       id="filter73821"
       x="-0.080348601"
       y="-0.058367992"
       width="1.0981513"
       height="1.0746158">
      <feFlood
         flood-opacity="0.690196"
         flood-color="rgb(0,0,0)"
         result="flood"
         id="feFlood73811" />
      <feComposite
         in="flood"
         in2="SourceGraphic"
         operator="in"
         result="composite1"
         id="feComposite73813" />
      <feGaussianBlur
         in="composite1"
         stdDeviation="3.16085"
         result="blur"
         id="feGaussianBlur73815" />
      <feOffset
         dx="-26.6531"
         dy="-19.6667"
         result="offset"
         id="feOffset73817" />
      <feComposite
         in="SourceGraphic"
         in2="offset"
         operator="over"
         result="fbSourceGraphic"
         id="feComposite73819" />
      <feColorMatrix
         result="fbSourceGraphicAlpha"
         in="fbSourceGraphic"
         values="0 0 0 -1 0 0 0 0 -1 0 0 0 0 -1 0 0 0 0 1 0"
         id="feColorMatrix73841" />
      <feFlood
         id="feFlood73843"
         flood-opacity="0.690196"
         flood-color="rgb(0,0,0)"
         result="flood"
         in="fbSourceGraphic" />
      <feComposite
         in2="fbSourceGraphic"
         id="feComposite73845"
         in="flood"
         operator="in"
         result="composite1" />
      <feGaussianBlur
         id="feGaussianBlur73847"
         in="composite1"
         stdDeviation="3.16085"
         result="blur" />
      <feOffset
         id="feOffset73849"
         dx="-26.6531"
         dy="-19.6667"
         result="offset" />
      <feComposite
         in2="offset"
         id="feComposite73851"
         in="fbSourceGraphic"
         operator="over"
         result="composite2" />
    </filter>
  </defs>
  <sodipodi:namedview
     id="namedview4"
     pagecolor="#505050"
     bordercolor="#eeeeee"
     borderopacity="1"
     inkscape:pageshadow="0"
     inkscape:pageopacity="0"
     inkscape:pagecheckerboard="0"
     showgrid="false"
     inkscape:zoom="0.14899632"
     inkscape:cx="885.92789"
     inkscape:cy="1526.8833"
     inkscape:window-width="1366"
     inkscape:window-height="736"
     inkscape:window-x="0"
     inkscape:window-y="32"
     inkscape:window-maximized="1"
     inkscape:current-layer="g8" />
  <g
     inkscape:groupmode="layer"
     inkscape:label="Image"
     id="g8"
     transform="translate(1679.3859,-243.31139)">
    <rect
       style="fill:#08546c;fill-opacity:1;stroke:#ffffff;stroke-width:0;stroke-linecap:round;stroke-linejoin:bevel;stroke-miterlimit:4;stroke-dasharray:none;paint-order:stroke fill markers"
       id="rect929"
       width="1500.9169"
       height="3009.4236"
       x="-1679.3859"
       y="243.31139"
       ry="0.105071"
       inkscape:export-filename="/home/thirt33n/Documents/PROJECT/ARBIT/media/images/Backgrounds/mobilbackground.png"
       inkscape:export-xdpi="25.520401"
       inkscape:export-ydpi="25.520401" />
    <path
       style="fill:#1f80ad;fill-opacity:1;stroke:#ffffff;stroke-width:0;stroke-linecap:round;stroke-linejoin:bevel;stroke-miterlimit:4;stroke-dasharray:none;paint-order:stroke fill markers"
       id="path85656"
       sodipodi:type="arc"
       sodipodi:cx="-1040.6217"
       sodipodi:cy="1519.4999"
       sodipodi:rx="625.84595"
       sodipodi:ry="610.1908"
       sodipodi:start="0.73542241"
       sodipodi:end="0.72603777"
       sodipodi:arc-type="slice"
       d="m -576.52725,1928.8772 a 625.84595,610.1908 0 0 1 -882.88475,44.0673 625.84595,610.1908 0 0 1 -47.2693,-860.6942 625.84595,610.1908 0 0 1 882.66303,-48.106 625.84595,610.1908 0 0 1 51.41095,860.4685 l -468.01438,-405.1129 z" />
    <path
       style="fill:#1f80ad;fill-opacity:1;stroke:#ffffff;stroke-width:0;stroke-linecap:round;stroke-linejoin:bevel;stroke-miterlimit:4;stroke-dasharray:none;paint-order:stroke fill markers"
       id="path86261"
       sodipodi:type="arc"
       sodipodi:cx="-1246.0878"
       sodipodi:cy="582.64685"
       sodipodi:rx="126.33227"
       sodipodi:ry="132.32036"
       sodipodi:start="0.73542241"
       sodipodi:end="0.72603777"
       sodipodi:arc-type="slice"
       d="m -1152.4064,671.42064 a 126.33227,132.32036 0 0 1 -178.2177,9.55604 126.33227,132.32036 0 0 1 -9.5417,-186.64222 126.33227,132.32036 0 0 1 178.1729,-10.43183 126.33227,132.32036 0 0 1 10.3778,186.59328 l -94.4727,-87.84906 z" />
    <path
       id="path20540"
       style="fill:#1f80ad;fill-opacity:1;stroke:#ffffff;stroke-width:0;stroke-linecap:round;stroke-linejoin:bevel;stroke-miterlimit:4;stroke-dasharray:none;paint-order:stroke fill markers;filter:url(#filter73821)"
       d="m -645.16815,374.32661 a 426.13535,466.91306 0 0 0 -323.92192,155.23437 426.13535,466.91306 0 0 0 32.1856,658.59562 426.13535,466.91306 0 0 0 601.15234,-33.7207 l -90.52735,-89.7402 a 297.2677,343.17685 0 0 1 -3.17187,4.3281 l -222.30078,-227.83977 220.43945,230.23827 a 297.2677,343.17685 0 0 1 -419.35739,24.7832 297.2677,343.17685 0 0 1 -22.4532,-484.06249 297.2677,343.17685 0 0 1 419.252,-27.05469 297.2677,343.17685 0 0 1 29.38086,477.16598 l 91.4082,88.9199 A 426.13535,466.91306 0 0 0 -368.08807,492.75043 426.13535,466.91306 0 0 0 -645.16815,374.32661 Z"
       transform="matrix(1.0877105,0,0,1,33.211996,-19.37402)" />
    <path
       style="fill:#1f80ad;fill-opacity:1;stroke:#ffffff;stroke-width:0;stroke-linecap:round;stroke-linejoin:bevel;stroke-miterlimit:4;stroke-dasharray:none;paint-order:stroke fill markers"
       id="path86157"
       sodipodi:type="arc"
       sodipodi:cx="-390.94186"
       sodipodi:cy="2042.5494"
       sodipodi:rx="164.1965"
       sodipodi:ry="179.93956"
       sodipodi:start="0.73542241"
       sodipodi:end="0.72603777"
       sodipodi:arc-type="slice"
       d="m -269.18237,2163.271 a 164.1965,179.93956 0 0 1 -231.63303,12.995 164.1965,179.93956 0 0 1 -12.40152,-253.8107 164.1965,179.93956 0 0 1 231.57484,-14.186 164.1965,179.93956 0 0 1 13.48814,253.7441 l -122.78792,-119.464 z" />
    <path
       id="path20647"
       style="fill:#1f80ad;fill-opacity:1;stroke:#ffffff;stroke-width:0;stroke-linecap:round;stroke-linejoin:bevel;stroke-miterlimit:4;stroke-dasharray:none;paint-order:stroke fill markers;filter:url(#filter41269)"
       d="m -900.64614,1481.1257 a 722.73965,791.9 0 0 0 -549.38236,263.2826 722.73965,791.9 0 0 0 54.5878,1117 722.73965,791.9 0 0 0 1019.5743,-57.1915 l -153.53738,-152.2023 a 504.17586,582.03929 0 0 1 -5.3796,7.3406 l -377.02944,-386.4238 373.87257,390.4917 a 504.17586,582.03929 0 0 1 -711.24405,42.0332 504.17586,582.03929 0 0 1 -38.0814,-820.9861 504.17586,582.03929 0 0 1 711.06526,-45.8856 504.17586,582.03929 0 0 1 49.83098,809.2893 l 155.03133,150.8111 a 722.73965,791.9 0 0 0 -59.37109,-1116.7086 722.73965,791.9 0 0 0 -469.93692,-200.8506 z"
       transform="matrix(0.91654745,0,0,0.82555422,-90.103398,617.38969)" />
  </g>
</svg>
