<?xml version="1.0" encoding="UTF-8" standalone="no"?>
<!-- Created with Inkscape (http://www.inkscape.org/) -->

<svg
   width="20.369267mm"
   height="7.2017493mm"
   viewBox="0 0 20.369267 7.201749"
   version="1.1"
   id="svg5"
   inkscape:version="1.1.1 (3bf5ae0d25, 2021-09-20, custom)"
   sodipodi:docname="Arbit-tech.svg"
   xmlns:inkscape="http://www.inkscape.org/namespaces/inkscape"
   xmlns:sodipodi="http://sodipodi.sourceforge.net/DTD/sodipodi-0.dtd"
   xmlns="http://www.w3.org/2000/svg"
   xmlns:svg="http://www.w3.org/2000/svg">
  <sodipodi:namedview
     id="namedview7"
     pagecolor="#505050"
     bordercolor="#eeeeee"
     borderopacity="1"
     inkscape:pageshadow="0"
     inkscape:pageopacity="0"
     inkscape:pagecheckerboard="0"
     inkscape:document-units="mm"
     showgrid="false"
     inkscape:zoom="3.9315138"
     inkscape:cx="57.992929"
     inkscape:cy="49.34486"
     inkscape:window-width="1366"
     inkscape:window-height="708"
     inkscape:window-x="0"
     inkscape:window-y="0"
     inkscape:window-maximized="1"
     inkscape:current-layer="layer1"
     inkscape:snap-nodes="false"
     inkscape:snap-others="false" />
  <defs
     id="defs2">
    <inkscape:path-effect
       effect="slice"
       start_point="37.230469,12.525992"
       end_point="7.2597656,12.525992"
       center_point="22.245117,12.379688"
       id="path-effect54313"
       is_visible="true"
       lpeversion="1"
       allow_transforms="true" />
    <inkscape:path-effect
       effect="knot"
       id="path-effect41996"
       is_visible="true"
       lpeversion="1"
       switcher_size="14.9"
       interruption_width="3"
       prop_to_stroke_width="true"
       add_stroke_width="inkscape_1.0_and_up"
       both="false"
       inverse_width="false"
       add_other_stroke_width="inkscape_1.0_and_up"
       crossing_points_vector="" />
    <inkscape:path-effect
       effect="slice"
       start_point="107.33082,22.930717"
       end_point="89.350527,22.930717"
       center_point="98.340674,22.930717"
       id="path-effect18112"
       is_visible="true"
       lpeversion="1"
       allow_transforms="true" />
    <inkscape:path-effect
       effect="slice"
       start_point="112.99107,24.796731"
       end_point="85.177498,24.796731"
       center_point="99.084284,24.796731"
       id="path-effect10233"
       is_visible="true"
       lpeversion="1"
       allow_transforms="true" />
    <linearGradient
       id="linearGradient25419"
       inkscape:swatch="solid">
      <stop
         style="stop-color:#00ffff;stop-opacity:1;"
         offset="0"
         id="stop25417" />
    </linearGradient>
    <linearGradient
       id="linearGradient25411"
       inkscape:swatch="solid">
      <stop
         style="stop-color:#f4f7ee;stop-opacity:0.97647059;"
         offset="0"
         id="stop25409" />
    </linearGradient>
    <marker
       style="overflow:visible"
       id="Arrow1Send"
       refX="0"
       refY="0"
       orient="auto"
       inkscape:stockid="Arrow1Send"
       inkscape:isstock="true">
      <path
         transform="matrix(-0.2,0,0,-0.2,-1.2,0)"
         style="fill:context-stroke;fill-rule:evenodd;stroke:context-stroke;stroke-width:1pt"
         d="M 0,0 5,-5 -12.5,0 5,5 Z"
         id="path18454" />
    </marker>
    <linearGradient
       id="linearGradient24909"
       inkscape:swatch="solid">
      <stop
         style="stop-color:#08080d;stop-opacity:1;"
         offset="0"
         id="stop24907" />
    </linearGradient>
    <linearGradient
       id="linearGradient21939"
       inkscape:swatch="solid">
      <stop
         style="stop-color:#db438a;stop-opacity:1;"
         offset="0"
         id="stop21937" />
    </linearGradient>
    <linearGradient
       id="linearGradient21865"
       inkscape:swatch="solid">
      <stop
         style="stop-color:#001313;stop-opacity:1;"
         offset="0"
         id="stop21863" />
    </linearGradient>
    <linearGradient
       id="linearGradient20949"
       inkscape:swatch="solid">
      <stop
         style="stop-color:#000000;stop-opacity:1;"
         offset="0"
         id="stop20947" />
    </linearGradient>
    <marker
       style="overflow:visible"
       id="Arrow1Lend"
       refX="0"
       refY="0"
       orient="auto"
       inkscape:stockid="Arrow1Lend"
       inkscape:isstock="true">
      <path
         transform="matrix(-0.8,0,0,-0.8,-10,0)"
         style="fill:context-stroke;fill-rule:evenodd;stroke:context-stroke;stroke-width:1pt"
         d="M 0,0 5,-5 -12.5,0 5,5 Z"
         id="path18442" />
    </marker>
    <inkscape:path-effect
       effect="spiro"
       id="path-effect18371"
       is_visible="true"
       lpeversion="1" />
    <inkscape:path-effect
       effect="envelope"
       id="path-effect66157"
       is_visible="true"
       lpeversion="1"
       yy="true"
       xx="true"
       bendpath1="M 84.989711,21.839524 H 113.64698"
       bendpath2="m 113.64698,21.839524 v 2.940101"
       bendpath3="M 84.989711,24.779625 H 113.64698"
       bendpath4="m 84.989711,21.839524 v 2.940101" />
    <inkscape:path-effect
       effect="clone_original"
       id="path-effect65980"
       is_visible="true"
       lpeversion="1"
       linkeditem=""
       method="d"
       attributes=""
       css_properties=""
       allow_transforms="true" />
    <rect
       x="331.88397"
       y="41.380054"
       width="100.64773"
       height="89.564621"
       id="rect62540" />
    <rect
       x="274.02686"
       y="62.552769"
       width="476.74228"
       height="121.50177"
       id="rect29406" />
    <style
       id="style41932"><![CDATA[
.class1 { 
    fill:#000000;
    fill-opacity:1;
    font-family:monospace;
    font-size:7.20822px;
    font-style:normal;
    font-weight:900;
    line-height:1;
    stroke:black;
    stroke-width:0.1;
}
]]></style>
  </defs>
  <g
     inkscape:label="Layer 1"
     inkscape:groupmode="layer"
     id="layer1"
     transform="translate(-84.923752,-19.44644)">
    <rect
       style="fill:none;fill-opacity:0.159182;fill-rule:evenodd;stroke:#ffffff;stroke-width:0.0627135;stroke-linecap:square;stroke-linejoin:round;stroke-miterlimit:4;stroke-dasharray:1.50513, 0.0627135;stroke-dashoffset:0;stroke-opacity:1;paint-order:fill markers stroke"
       id="rect1137"
       width="8.8799248"
       height="5.2464118"
       x="91.694794"
       y="20.487993" />
    <text
       xml:space="preserve"
       transform="matrix(0.26458333,0,0,0.26458333,0.14135061,0.15994937)"
       id="text62538"
       style="font-style:normal;font-weight:normal;font-size:40px;line-height:1.25;font-family:sans-serif;white-space:pre;shape-inside:url(#rect62540);fill:#000000;fill-opacity:1;stroke:none" />
    <rect
       style="fill:none;fill-opacity:0.159182;fill-rule:evenodd;stroke:#309ef1;stroke-width:0.208025;stroke-linecap:butt;stroke-linejoin:bevel;stroke-miterlimit:4;stroke-dasharray:4.9926, 0.208025;stroke-dashoffset:0;stroke-opacity:0.999335;paint-order:fill markers stroke"
       id="rect1135"
       width="10.534917"
       height="6.3344278"
       x="87.024292"
       y="19.878153" />
    <path
       id="path54276"
       style="font-weight:900;font-size:3.89686px;line-height:1.25;fill:#e2dbdb;fill-opacity:0.893254;stroke:#000000;stroke-width:0.37403;stroke-opacity:0.999335"
       d="m 29.177734,4.6171875 c -0.283135,0.013118 -0.526507,0.1260556 -0.732422,0.3359375 -0.212333,0.2238564 -0.318359,0.6702277 -0.318359,1.3417969 0,0.6452586 0.106026,1.0872172 0.318359,1.3242187 0.219637,0.223874 0.481556,0.3359375 0.789063,0.3359375 0.300168,0 0.561584,-0.1120635 0.78125,-0.3359375 0.226948,-0.2370267 0.339844,-0.6789853 0.339844,-1.3242187 0,-0.6715515 -0.112896,-1.1179229 -0.339844,-1.3417969 -0.219654,-0.223874 -0.48107,-0.3359375 -0.78125,-0.3359375 -0.01922,0 -0.03777,-8.745e-4 -0.05664,0 z M 26.86589,12.379688 C 26.767431,11.528486 26.60101,10.82379 26.367188,10.265625 25.964499,9.3043576 25.449964,8.8242188 24.820312,8.8242188 c -0.409994,0 -0.743745,0.1585904 -1,0.4746093 -0.256294,0.3028636 -0.461533,0.6772874 -0.615234,1.1249999 h -0.07617 c 0.02152,-0.302863 0.03957,-0.6327435 0.05469,-0.9882811 0.01512,-0.3555351 0.02148,-0.7235954 0.02148,-1.1054688 V 4.9335938 h -2.097656 v 7.4460942 z m -13.017856,0 L 12.640625,5.78125 H 9.8183594 l -1.1919407,6.598438 z m 21.472278,0 V 8.9628906 h 1.910157 V 5.8417969 h -5.941407 v 3.1210937 h 1.910157 v 3.4167974 z m -24.632678,0 0.07604,-0.514454 c 0.04397,-0.316034 0.09374,-0.703179 0.152344,-1.164062 0.06576,-0.460881 0.128892,-0.9282954 0.1875,-1.4023439 0.06596,-0.4740686 0.113274,-0.8695304 0.142578,-1.1855469 0.03664,0.3160341 0.08836,0.7242227 0.154297,1.2246094 0.06576,0.5003843 0.131325,0.9868894 0.197265,1.4609374 0.06594,0.460873 0.117661,0.816202 0.154297,1.066406 l 0.0756,0.514454 z m 9.394716,0 0.179369,-3.4363286 c -0.05863,-0.026331 -0.149066,-0.053722 -0.273438,-0.080078 -0.123896,-0.026213 -0.244884,-0.03892 -0.361328,-0.039062 h -0.002 c -0.343386,7.211e-4 -0.669638,0.1911148 -0.976562,0.5722656 -0.300239,0.3687055 -0.534785,0.8233886 -0.703126,1.3632816 h -0.09766 L 17.517578,9.0214844 h -1.560547 v 3.3582036 z m -0.758801,0 c 0.01333,-5.21e-4 0.02658,-7.82e-4 0.03973,-7.82e-4 0.0272,0 0.05347,2.6e-4 0.07881,7.82e-4 z m 10.955748,0 V 9.0214844 h -2.097656 v 3.3582036 z m -6.888712,0 c 0.0045,-0.01354 0.0091,-0.02682 0.01371,-0.03984 0.139109,-0.368703 0.353631,-0.552735 0.646484,-0.552735 0.250377,0 0.441358,0.197521 0.572883,0.592579 z"
       transform="matrix(0.58203554,0,0,0.28140361,82.636218,19.453485)"
       inkscape:path-effect="#path-effect54313"
       inkscape:original-d="m 29.177734,4.6171875 c -0.283135,0.013118 -0.526508,0.1260556 -0.732422,0.3359375 -0.212333,0.2238564 -0.318359,0.6702277 -0.318359,1.3417969 0,0.6452586 0.106026,1.0872172 0.318359,1.3242187 0.219636,0.223874 0.481556,0.3359375 0.789063,0.3359375 0.300168,0 0.561584,-0.1120635 0.78125,-0.3359375 0.226948,-0.2370267 0.339844,-0.6789853 0.339844,-1.3242187 0,-0.6715515 -0.112896,-1.1179229 -0.339844,-1.3417969 -0.219654,-0.223874 -0.48107,-0.3359375 -0.78125,-0.3359375 -0.01922,0 -0.03777,-8.745e-4 -0.05664,0 z M 21.107422,4.9335938 V 19.945312 h 1.636719 l 0.330078,-1.068359 h 0.130859 c 0.153734,0.302879 0.343339,0.592625 0.570313,0.869141 0.226978,0.26337 0.55388,0.396484 0.978515,0.396484 0.658941,0 1.1935,-0.482092 1.603516,-1.443359 0.409998,-0.961268 0.615234,-2.376231 0.615234,-4.246094 0,-1.830355 -0.20278,-3.22623 -0.605468,-4.1875 -0.402689,-0.9612674 -0.917224,-1.4414062 -1.546876,-1.4414062 -0.409995,0 -0.743745,0.1585904 -1,0.4746093 -0.256294,0.3028636 -0.461533,0.6772873 -0.615234,1.1249999 h -0.07617 c 0.02152,-0.302863 0.03957,-0.6327435 0.05469,-0.9882811 0.01512,-0.3555351 0.02148,-0.7235954 0.02148,-1.1054688 V 4.9335938 Z M 9.8183594,5.78125 7.2597656,19.945312 h 2.328125 L 9.9824219,17.296875 H 12.53125 l 0.384766,2.648437 h 2.316406 L 12.640625,5.78125 Z M 31.289062,5.841797 v 3.1210937 h 1.910157 V 19.945312 h 2.121093 V 8.9628906 h 1.910157 V 5.8417969 Z M 11.246094,8.1132812 c 0.03664,0.3160341 0.08836,0.7242227 0.154297,1.2246094 0.06576,0.5003843 0.131325,0.9868894 0.197265,1.4609374 0.06594,0.460873 0.117661,0.816202 0.154297,1.066406 l 0.339844,2.3125 h -1.669922 l 0.341797,-2.3125 c 0.04397,-0.316034 0.09374,-0.703179 0.152344,-1.164062 0.06576,-0.460881 0.128892,-0.9282954 0.1875,-1.4023439 0.06596,-0.4740686 0.113274,-0.8695305 0.142578,-1.1855469 z M 19.625,8.8242188 C 19.281614,8.82494 18.955363,9.0153336 18.648438,9.3964844 18.348199,9.7651899 18.113653,10.219873 17.945312,10.759766 h -0.09766 L 17.517578,9.0214844 H 15.957031 V 19.945312 h 2.097657 v -5.373046 c 0,-0.658392 0.07433,-1.138535 0.220703,-1.441407 0.146413,-0.316016 0.31793,-0.521086 0.515625,-0.613281 0.205052,-0.09217 0.396593,-0.138672 0.572265,-0.138672 0.190277,0 0.334924,0.01271 0.4375,0.03906 0.109733,0.02633 0.202118,0.05372 0.275391,0.08008 l 0.185547,-3.5546876 c -0.05863,-0.026331 -0.149066,-0.053722 -0.273438,-0.080078 -0.123896,-0.026213 -0.244884,-0.03892 -0.361328,-0.039062 z m 8.556641,0.1972656 V 19.945312 h 2.097656 V 9.0214844 Z m -4.13086,2.7656246 c 0.527159,0 0.791016,0.875604 0.791016,2.626953 0,1.790854 -0.255074,2.685547 -0.767578,2.685547 -0.32224,0 -0.549937,-0.203119 -0.681641,-0.611328 -0.124372,-0.421379 -0.185547,-1.05373 -0.185547,-1.896484 v -0.533203 c 0,-0.776915 0.06556,-1.350045 0.197266,-1.71875 0.139109,-0.368703 0.353631,-0.552735 0.646484,-0.552735 z" />
    <path
       transform="matrix(0.58203554,0,0,0.28140361,82.663399,19.711971)"
       id="slice-0-path54276"
       class="path54276-slice UnoptimicedTransforms"
       d="m 21.107422,12.379688 v 7.565624 h 1.636719 l 0.330078,-1.068359 h 0.130859 c 0.153734,0.302879 0.343339,0.592625 0.570313,0.869141 0.226978,0.26337 0.55388,0.396484 0.978515,0.396484 0.658941,0 1.1935,-0.482092 1.603516,-1.443359 0.409998,-0.961268 0.615234,-2.376231 0.615234,-4.246094 0,-0.767553 -0.03566,-1.458701 -0.106766,-2.073437 z m -12.4810033,0 -1.3666531,7.565624 h 2.328125 L 9.9824219,17.296875 H 12.53125 l 0.384766,2.648437 h 2.316406 l -1.384388,-7.565624 z m 24.5728003,0 v 7.565624 h 2.121093 v -7.565624 z m -21.371662,0 0.26424,1.798046 h -1.669922 l 0.265759,-1.798046 z m 4.129474,0 v 7.565624 h 2.097657 v -5.373046 c 0,-0.658392 0.07433,-1.138535 0.220703,-1.441407 0.146413,-0.316016 0.31793,-0.521086 0.515625,-0.613281 0.189696,-0.08527 0.36783,-0.131451 0.532533,-0.13789 z m 3.485061,0 c 0.151959,0.0031 0.270776,0.0157 0.358689,0.03828 0.109733,0.02633 0.202118,0.05372 0.275391,0.08008 l 0.0062,-0.118359 z m 8.739549,0 v 7.565624 h 2.097656 v -7.565624 z m -3.557977,0 c 0.145395,0.43672 0.218133,1.114838 0.218133,2.034374 0,1.790854 -0.255074,2.685547 -0.767578,2.685547 -0.32224,0 -0.549937,-0.203119 -0.681641,-0.611328 -0.124372,-0.421379 -0.185547,-1.05373 -0.185547,-1.896484 v -0.533203 c 0,-0.749467 0.06101,-1.309294 0.183554,-1.678906 z"
       style="font-weight:900;font-size:3.89686px;line-height:1.25;display:inline;fill-opacity:0.893254;stroke:#ffffff;stroke-width:0.37403;stroke-opacity:0.999335" />
  </g>
</svg>
